<svg width="40" height="40" viewBox="0 0 40 40" fill="none" xmlns="http://www.w3.org/2000/svg">
<path d="M7.60042 7.99262L7.65158 8.05161L18.8849 20.3281C19.1359 20.0658 19.2817 19.7191 19.2942 19.3548L19.1699 5.48571C19.1699 5.48571 18.6437 0.0663594 13.0526 0C12.1706 0.0751215 11.3148 0.340443 10.5431 0.778026C9.77144 1.21561 9.1019 1.81525 8.57977 2.5364C8.04311 3.32416 7.6783 4.21787 7.50948 5.15844C7.34065 6.09902 7.37165 7.06503 7.60042 7.99262Z" fill="#00AAA9"/>
<path d="M7.50594 7.0046L7.5571 7.05621L19.2509 18.905C19.0144 19.165 18.6865 19.3211 18.3373 19.3401L5.21835 19.2516C5.21835 19.2516 0.102321 18.706 0 12.8C0.0575362 11.8903 0.296231 11.0016 0.701832 10.187C1.10743 9.37241 1.67161 8.64866 2.36068 8.05898C3.07746 7.49074 3.91603 7.09946 4.8094 6.91639C5.70277 6.73332 6.6262 6.76352 7.50594 7.0046Z" fill="#0D9BA1"/>
<path d="M32.4067 31.8599L32.3555 31.8009L21.1222 19.5244C20.8712 19.7867 20.7254 20.1334 20.7129 20.4977L20.8371 34.3815C20.8371 34.3815 21.3634 39.8009 26.9544 39.8672C27.8353 39.7939 28.6904 39.5308 29.462 39.0958C30.2336 38.6608 30.9037 38.064 31.4273 37.3456C31.9681 36.5542 32.3352 35.6554 32.5041 34.7094C32.673 33.7634 32.6398 32.7919 32.4067 31.8599Z" fill="#A9B888"/>
<path d="M32.4949 32.8404L32.4438 32.7887L20.75 20.9399C20.9864 20.68 21.3144 20.5238 21.6636 20.5049L34.7825 20.5934C34.7825 20.5934 39.8986 21.139 40.0009 27.045C39.9433 27.9547 39.7046 28.8434 39.299 29.658C38.8934 30.4725 38.3293 31.1963 37.6402 31.786C36.9234 32.3542 36.0848 32.7455 35.1915 32.9286C34.2981 33.1116 33.3747 33.0814 32.4949 32.8404Z" fill="#BFBE7A"/>
<path d="M20.8372 17.6958H17.541V21.0211H20.8372V17.6958Z" fill="#5EA089"/>
<path d="M32.1586 8.02948L32.1075 8.08847L20.8741 20.365C20.6231 20.1027 20.4773 19.756 20.4648 19.3917L20.5891 5.48571C20.5891 5.48571 21.1153 0.0663594 26.7064 0C27.5872 0.0761453 28.4416 0.341957 29.2119 0.7795C29.9822 1.21704 30.6506 1.81614 31.172 2.5364C31.715 3.32815 32.084 4.22789 32.2542 5.17529C32.4243 6.12268 32.3918 7.09583 32.1586 8.02948Z" fill="#2B707E"/>
<path d="M32.2469 7.04904L32.1957 7.10065L20.502 18.9495C20.7384 19.2094 21.0663 19.3656 21.4155 19.3845L34.5345 19.296C34.5345 19.296 39.6505 18.7504 39.7528 12.8444C39.6953 11.9347 39.4566 11.046 39.051 10.2314C38.6454 9.41685 38.0812 8.6931 37.3921 8.10341C36.6754 7.53517 35.8368 7.14389 34.9434 6.96082C34.0501 6.77775 33.1266 6.80796 32.2469 7.04904Z" fill="#038089"/>
<path d="M7.60188 31.9926L7.65304 31.9336L17.5416 21.1318C17.7926 21.394 19.1589 20.7674 19.1714 21.1317V34.5143C19.1714 34.5143 18.6452 39.9336 13.0541 40C12.1732 39.9266 11.3182 39.6636 10.5466 39.2286C9.77499 38.7936 9.10481 38.1967 8.58124 37.4783C8.04045 36.6869 7.67334 35.7882 7.50445 34.8421C7.33556 33.8961 7.36878 32.9246 7.60188 31.9926Z" fill="#8EB192"/>
<path d="M7.50594 32.9805L7.5571 32.9289L19.0024 21.3823C18.7659 21.1224 18.6865 20.664 18.3373 20.645H5.11602C5.11602 20.645 0.10232 21.2791 0 27.1851C0.0575362 28.0948 0.296237 28.9835 0.701837 29.7981C1.10744 30.6127 1.67162 31.3364 2.36068 31.9261C3.07747 32.4943 3.91603 32.8856 4.8094 33.0687C5.70278 33.2518 6.6262 33.2216 7.50594 32.9805Z" fill="#5EA089"/>
<path d="M16.1151 27.5373L26.9316 16.6251C27.8507 15.6979 27.8507 14.1947 26.9316 13.2675C26.0126 12.3403 24.5225 12.3403 23.6034 13.2675L12.7869 24.1797C11.8678 25.1069 11.8678 26.6102 12.7869 27.5373C13.7059 28.4645 15.196 28.4645 16.1151 27.5373Z" fill="white"/>
<path d="M27.0542 23.9364L15.8777 13.3998C14.928 12.5046 13.4388 12.5555 12.5514 13.5135C11.664 14.4715 11.7144 15.9739 12.6641 16.8692L23.8406 27.4058C24.7902 28.301 26.2795 28.2501 27.1669 27.2921C28.0543 26.334 28.0038 24.8317 27.0542 23.9364Z" fill="white"/>
<path d="M19.8568 22.7613C21.1445 22.7613 22.1883 21.7082 22.1883 20.4092C22.1883 19.1102 21.1445 18.0571 19.8568 18.0571C18.5692 18.0571 17.5254 19.1102 17.5254 20.4092C17.5254 21.7082 18.5692 22.7613 19.8568 22.7613Z" fill="#00AAA9"/>
</svg>
